<svg width="302" height="32" viewBox="0 0 302 32" fill="none" xmlns="http://www.w3.org/2000/svg">
<g clip-path="url(#clip0_244_12642)">
<path d="M190.54 20.2158V20.8699H193.723V24.4922H190.933V25.1425H193.723V29.3849H190.237V30.039H199.248V29.3849H195.648V25.1425H198.442V24.4922H195.648V20.8699H198.866V20.2158H190.54Z" fill="white"/>
<path d="M266.21 18.2538H264.255V30.0355H266.21V23.5132C267.821 24.3148 269.417 25.4113 270.645 26.4624L271.957 24.8139C270.747 24.0426 268.441 23.0255 266.21 22.4129V18.25V18.2538Z" fill="white"/>
<path d="M213.209 20.2158H204.701V20.8699H213.209V20.2158Z" fill="white"/>
<path d="M211.938 18.0371H205.793V18.6912H211.938V18.0371Z" fill="white"/>
<path d="M211.938 22.2607H205.793V22.9111H211.938V22.2607Z" fill="white"/>
<path d="M211.938 24.1211H205.793V24.7714H211.938V24.1211Z" fill="white"/>
<path d="M196.712 18.8505C195.699 18.2456 194.334 17.7994 192.931 17.4629L192.107 17.8145C193.101 18.4687 194.126 19.3156 194.829 20.0075L196.712 18.8543V18.8505Z" fill="white"/>
<path d="M231.131 23.8484C232.526 23.5119 233.437 22.5742 233.437 21.2697C233.437 19.3754 231.864 18.2676 229.047 18.2676H225.138V30.0342H229.044C232.775 30.0342 233.97 28.7071 233.97 26.6691C233.97 25.2209 232.961 24.166 231.134 23.8446M227.244 18.9557H228.896C230.416 18.9557 231.327 19.8783 231.327 21.2697C231.327 22.5024 230.227 23.527 228.703 23.527H227.244V18.9557ZM229.006 29.3158H227.244V24.219H228.703C230.624 24.219 231.86 25.2701 231.86 26.7485C231.86 28.2269 230.775 29.3158 229.006 29.3158Z" fill="white"/>
<path d="M238.156 18.2715H236.05V30.0381H238.156V18.2715Z" fill="white"/>
<path d="M253.621 21.5986L252.498 21.8822C253.035 22.8691 253.538 24.2076 253.848 25.2322L255.413 24.6235C254.997 23.4929 254.328 22.404 253.625 21.5986" fill="white"/>
<path d="M257.941 23.955C257.555 22.8131 256.913 21.7128 256.228 20.8848L255.098 21.1419C255.612 22.1401 256.081 23.4899 256.368 24.5259L257.941 23.955Z" fill="white"/>
<path d="M255.023 28.7459L255.877 29.5664C259.277 27.9746 261.023 25.774 261.798 21.785L259.991 21.3086C259.22 25.2522 258.04 27.3356 255.019 28.7497" fill="white"/>
<path d="M292.909 18.6169L291.241 17.9287C290.391 19.1084 289.222 20.2956 288.035 20.9233L288.394 21.7438C290.013 21.2787 291.937 19.9554 292.905 18.6169" fill="white"/>
<path d="M288.035 24.5071L288.409 25.2217C288.844 25.044 289.301 24.7944 289.762 24.4995V30.0387H291.717V22.8926C292.163 22.4275 292.542 21.9435 292.799 21.486L291.09 20.9453C290.318 22.3443 289.176 23.713 288.031 24.5108" fill="white"/>
<path d="M300.71 18.0371H293.359V18.7669H300.71V18.0371Z" fill="white"/>
<path d="M293.14 21.8115V22.5413H297.405V28.9577C297.405 29.2753 297.272 29.3812 297.049 29.3812H295.854V30.0353H297.817C298.947 30.0353 299.356 29.6043 299.356 28.6363V22.5413H301V21.8115H293.136H293.14Z" fill="white"/>
<path d="M216.721 20.7896C216.721 19.6099 217.56 18.7365 218.819 18.7365C220.078 18.7365 220.94 19.746 221.027 21.0883H223.054C223.054 19.2469 221.367 18.0332 218.819 18.0332C216.271 18.0332 214.698 19.4851 214.698 21.2395C214.698 25.013 221.178 24.5177 221.178 27.414C221.178 28.7979 220.324 29.6297 218.932 29.6259C217.549 29.6221 216.422 28.7071 216.327 27.1266H214.327C214.327 29.1382 216.229 30.3292 218.929 30.3292C221.628 30.3292 223.197 29.002 223.197 27.0397C223.197 23.1717 216.717 23.5687 216.717 20.7896" fill="white"/>
<path d="M207.083 26.7033H210.641V29.3879H207.083V26.7033ZM210.641 26.0605H205.204V30.0382H212.52V26.0605H210.641Z" fill="white"/>
<path d="M250.399 20.8431V20.189H246.78V18.2568H244.826V20.189H241.37V20.8544H247.684C245.446 23.5238 242.977 25.6223 240.266 26.8171L240.621 27.6112C242.05 27.1121 243.464 26.4315 244.826 25.5921V30.0348H246.78V25.248C248.108 25.9929 249.42 27.0327 250.584 28.1745L251.945 26.7869C250.342 25.6412 248.731 24.7905 246.977 24.0986C248.213 23.1344 249.367 22.0417 250.399 20.8431Z" fill="white"/>
<path d="M277.327 27.5809H278.136C278.537 26.8587 278.911 25.7773 279.063 24.9228L277.758 24.832C277.713 25.679 277.528 26.8246 277.327 27.5846" fill="white"/>
<path d="M275.43 27.5806C275.245 26.7336 274.814 25.6485 274.383 24.9414L273.577 24.9943C273.804 25.7165 274.012 26.745 274.099 27.5806H275.43Z" fill="white"/>
<path d="M190.987 18.1594L188.904 17.9287C187.966 20.4393 186.953 22.7042 185.584 24.8367L186.42 25.2602C186.817 24.7951 187.195 24.3225 187.55 23.8461V30.0394H189.509V20.9006C190.027 20.0159 190.518 19.1046 190.991 18.1594" fill="white"/>
<path d="M205.106 18.1554L203.034 17.9248C202.096 20.1518 201.086 22.1596 199.714 24.0501L200.553 24.4244C200.954 24.0085 201.336 23.585 201.695 23.154V30.0355H203.623V20.5791C204.141 19.7964 204.633 18.9873 205.106 18.1517" fill="white"/>
<path d="M286.717 25.4454L285.273 24.4208C284.883 24.9237 284.282 25.487 283.768 25.9219C283.533 25.3358 283.359 24.7006 283.25 24.0086H285.931V18.0384H279.416V20.5339C278.671 19.7776 277.968 18.8021 277.484 17.9287H275.559C274.856 19.3844 274.126 20.4166 273.158 21.2144L273.593 21.6757C274.637 21.188 275.843 20.307 277 19.1008C277.238 19.8192 277.616 20.6397 277.903 21.0972L279.42 20.7985V30.0356C280.856 29.6916 282.127 29.1962 283.095 28.6934V28.0166C282.539 28.217 281.9 28.3682 281.193 28.4892V24.0011H281.291C281.745 26.5457 283.492 29.0488 286.248 30.0356L286.721 29.3891C285.76 28.7955 284.982 28.0468 284.396 27.1356C285.208 26.7121 286.229 25.9861 286.721 25.4417M281.189 18.6887H284.104V20.6964H281.189V18.6887ZM281.189 21.3468H284.104V23.3545H281.189V21.3468Z" fill="white"/>
<path d="M277.176 24.1974H278.972V23.5471H277.176V22.1103H278.651V21.46H274.552V22.1103H275.581V23.5471H273.864V24.1974H275.581V28.4889C274.953 28.5721 274.329 28.6251 273.766 28.6515L274.318 30.0429C276.034 29.714 277.736 29.1242 278.983 28.4852V27.8083C278.462 27.9634 277.838 28.107 277.176 28.2356V24.2012V24.1974Z" fill="white"/>
<path d="M16.5817 1V11.2693C15.1865 10.464 13.5228 9.98 11.5907 9.98C4.67518 9.98378 1 15.3642 1 20.4535C1 25.5428 4.67518 30.9157 11.5907 30.9157C16.7821 30.9157 18.7256 28.4051 22.344 26.7452V1H16.5817ZM6.7661 20.4459C6.7661 17.8937 8.50161 15.3945 11.7117 15.3945C14.9218 15.3945 16.6006 17.7879 16.6573 20.3136V20.5745C16.6006 23.1002 14.9218 25.4974 11.7117 25.4974C8.50161 25.4974 6.7661 22.9944 6.7661 20.4422" fill="white"/>
<path d="M109.505 19.4327C110.824 18.6235 111.842 17.217 111.842 15.058C111.842 12.0634 109.804 10.0557 106.329 10.0557H101.954V30.0347H107.437C111.063 30.0347 113.638 27.9363 113.638 24.4312C113.638 21.8563 112.11 19.8486 109.505 19.4289V19.4327ZM103.274 11.2543H105.822C106.869 11.2543 108.159 11.3148 109.146 12.0937C109.804 12.6343 110.495 13.6212 110.495 15.2092C110.495 16.5855 109.985 17.6064 109.176 18.2643C108.306 18.9827 107.467 19.1037 106.45 19.1037H103.274V11.2543ZM110.972 27.6413C109.622 28.8399 107.977 28.8399 106.627 28.8399H103.274V20.3023H106.389C108.605 20.3023 109.596 20.6313 110.133 20.8733C111.63 21.5614 112.261 22.7902 112.261 24.5862C112.261 25.5164 112.05 26.6847 110.972 27.6413Z" fill="white"/>
<path d="M117.869 30.0344H119.305L121.971 23.4742H130.478L133.144 30.0344H134.581L126.281 9.4541L117.865 30.0344H117.869ZM122.451 22.2756L126.255 12.8117L129.998 22.2756H122.451Z" fill="white"/>
<path d="M154.084 27.1532L139.762 9.60156V30.0344H141.081V13.2352L155.404 30.7906V10.0553H154.084V27.1532Z" fill="white"/>
<path d="M175.061 10.0557H173.322L163.888 19.4629V10.0557H162.568V30.0347H163.888V21.0207L164.425 20.5103L173.832 30.0347H175.628L165.385 19.6104L175.061 10.0557Z" fill="white"/>
<path d="M49.6974 10.0554V30.0345H47.0015L34.8378 16.6723V30.0345H30.9434V10.0554H33.6392L45.7991 23.3874V10.0554H49.6936H49.6974ZM56.8663 10.0554V30.0345H67.9485V26.6807H60.7607V21.2284H67.6498V17.8746H60.7607V13.413H67.9485V10.0592H56.8663V10.0554ZM78.1536 20.0601C78.1536 24.1058 80.91 26.9492 84.8044 26.9492C88.6989 26.9492 91.4553 24.102 91.4553 20.0601C91.4553 16.0181 88.6989 13.1408 84.8044 13.1408C80.91 13.1408 78.1536 16.0181 78.1536 20.0601ZM74.1381 20.0601C74.1381 13.9801 78.5128 9.60547 84.8044 9.60547C91.0961 9.60547 95.467 13.9801 95.467 20.0601C95.467 26.14 91.0923 30.4844 84.8044 30.4844C78.5166 30.4844 74.1381 26.14 74.1381 20.0601Z" fill="white"/>
</g>
<defs>
<clipPath id="clip0_244_12642">
<rect width="300" height="29.9119" fill="white" transform="translate(1 1)"/>
</clipPath>
</defs>
</svg>
